# xmcd CD database file
#
# Track frame offsets:
#	150
#	15245
#	53967
#
# Disc length: 1068 seconds
#
# Revision: 0
# Processed by: cddbd v1.5.1PL2 Copyright (c) Steve Scherf et al.
# Submitted via: CDex 1.50
#
DISCID=18042a03
DTITLE=ビアンコネロ - 西へ西へ
DYEAR=2006
DGENRE=Japanese Pop
TTITLE0=西へ西へ
TTITLE1=また僕を見て
TTITLE2=[CD-EXTRA] NAINO? (video clip)
EXTD=YEAR: 2006
EXTT0=
EXTT1=
EXTT2=
PLAYORDER=
